<svg xmlns="http://www.w3.org/2000/svg" viewBox="0 0 512 512" role="img" aria-labelledby="title desc">
  <title id="title">NurseShift AI</title>
  <desc id="desc">Icone do aplicativo NurseShift AI para passagem de plantao em UTI.</desc>
  <defs>
    <linearGradient id="bg" x1="70" y1="64" x2="440" y2="460" gradientUnits="userSpaceOnUse">
      <stop offset="0" stop-color="#08366f"/>
      <stop offset="0.55" stop-color="#1257d8"/>
      <stop offset="1" stop-color="#10b89e"/>
    </linearGradient>
    <linearGradient id="card" x1="132" y1="116" x2="380" y2="398" gradientUnits="userSpaceOnUse">
      <stop offset="0" stop-color="#ffffff"/>
      <stop offset="1" stop-color="#eef6ff"/>
    </linearGradient>
    <filter id="shadow" x="-20%" y="-20%" width="140%" height="150%">
      <feDropShadow dx="0" dy="18" stdDeviation="20" flood-color="#04204b" flood-opacity="0.26"/>
    </filter>
  </defs>

  <rect width="512" height="512" rx="112" fill="url(#bg)"/>
  <path d="M83 143c45-69 119-95 191-75 52 14 96 48 127 95 34 51 43 110 25 169" fill="none" stroke="#67f0d6" stroke-width="18" stroke-linecap="round" opacity=".55"/>

  <g filter="url(#shadow)">
    <rect x="116" y="102" width="280" height="320" rx="56" fill="url(#card)"/>
    <path d="M166 224h180" fill="none" stroke="#d6e2f2" stroke-width="14" stroke-linecap="round"/>
    <path d="M166 286h180" fill="none" stroke="#d6e2f2" stroke-width="14" stroke-linecap="round"/>
    <path d="M166 348h116" fill="none" stroke="#d6e2f2" stroke-width="14" stroke-linecap="round"/>
  </g>

  <g fill="none" stroke-linecap="round" stroke-linejoin="round">
    <path d="M256 151v104M204 203h104" stroke="#1257d8" stroke-width="34"/>
    <path d="M144 381c44-1 76-20 96-58 13 34 40 54 82 59" stroke="#10a99a" stroke-width="18"/>
    <path d="M331 143c-34 12-52 41-47 73 5 34 33 59 68 63-14 14-35 22-58 18-42-7-73-43-68-85 5-43 44-74 87-69 6 1 12 2 18 4z" fill="#0b3470" stroke="#0b3470" stroke-width="8"/>
  </g>

  <rect x="308" y="348" width="106" height="58" rx="20" fill="#0b3470"/>
  <text x="361" y="388" text-anchor="middle" font-family="Inter, Arial, sans-serif" font-size="34" font-weight="900" fill="#64f0d8">AI</text>
</svg>
